<svg version="1" xmlns="http://www.w3.org/2000/svg" width="1277.333" height="1277.333" viewBox="0 0 958.000000 958.000000"><path d="M809.8 57.5c-.2.1-3.2.5-6.7.8-4.1.4-7.8 1.5-10.5 3.1-12.4 7.3-32.2 35.8-57.4 82.6-1.9 3.6-4.8 9-6.5 12-4 7.2-35.5 70.3-40 80-1.9 4.1-5.7 12.2-8.5 18-5.6 11.9-23.1 49.5-26.9 57.9-1.3 3.1-3.2 7.2-4.1 9.1-.8 1.9-4.9 10.7-8.9 19.5s-7.3 15.8-7.4 15.5c-.8-3.1-2.3-66-2.3-98.5 0-39.7 1-60.5 3.3-69.2 1-3.5-.8-18.4-2.6-21.8-.8-1.4-.8-3.5-.1-7 1.2-6 1.3-8.3.4-15.2-1.9-15.1-3-17.3-16.1-31.2-13.8-14.6-30-25-46.5-29.7-9-2.6-35-2.6-42.7 0-9.7 3.2-16.9 12.3-22.5 28.3-2.8 8-3.1 9.9-3.2 21.3 0 11.6.9 37.3 1.9 53.5.2 3.8.7 13.7 1 22 .3 8.2.8 18.8 1 23.5 1.4 31.2 1.5 40.1.7 39.6-.5-.3-3.7.8-7 2.5-15 7.5-18.1 23.5-15.8 83.9.4 10.2.9 20.1 1.1 22 .2 1.9.7 8.7 1 15 .4 6.3.8 13.4 1 15.7.2 2.3.6 8.4.9 13.5.4 5.1.9 11.3 1.1 13.8.5 4.4 1.1 11.3 2 23 .8 9.8 1.5 18.3 2 23.5.5 4.6.5 4.8-.8 2.5-.7-1.4-3-5.1-5-8.3-6.7-10.4-10.3-16.1-15.1-24.2-2.6-4.4-6.8-11.4-9.3-15.5-5.4-8.9-19.8-33.2-22.3-37.6-1-1.7-5.4-9.3-9.8-17-4.3-7.6-9.4-16.6-11.2-19.9-1.8-3.3-4.4-8-5.8-10.5-12.6-22.9-29.1-33.5-51.1-32.6-22.3.9-42.7 7.3-52.3 16.4l-2.8 2.6-.1-3.5c-.5-14.2-1.4-17.4-6-22.4-3.8-4.1-4.1-4.9-4.5-11.2-.5-8-1-11.7-1.9-15.9-.6-2.7 3.2-10.8 29.7-63.5 16.7-33.3 31.9-64 33.8-68.4 4.4-10.4 4.7-18.4.9-26.5-2.2-4.8-2.3-5.9-1.3-9 7.5-22.5-5.9-44.8-35.3-58.7-7.1-3.4-7.7-3.5-15.8-3.1-10.2.7-14.6 2.9-22.8 11.8-8.6 9.2-30.7 41.7-30.7 45 0 .5-.3 1-.7 1-.5 0-1.3 1-1.9 2.3-.6 1.2-3.3 6-5.9 10.7-2.6 4.7-6.1 11-7.8 14-1.6 3-4.2 7.8-5.8 10.6-3.6 6.6-36.5 72.3-41.8 83.6-2.2 4.9-5.9 12.5-8 17-3.5 7.4-11.6 24.8-21.1 45.3-1.8 3.8-6.6 14.4-10.7 23.5s-8.7 19.2-10.2 22.5c-1.6 3.3-3.1 7.1-3.5 8.3-1.2 3.6-1.9 1.8-2.2-5.5-1.9-48.3-2.4-115-1.1-137.8.4-7.2 1.4-15.9 2.1-19.4 1.1-5.2 1.1-8 .1-14.5-.6-4.5-1.7-9-2.3-10.2-.8-1.5-.8-3.5.1-7.5 1.3-5.7 1.3-6.4.2-14.9-1.9-15.2-2.9-17-16.5-31.4-14.3-15.1-29.9-24.9-46.5-29.2-10.2-2.7-34.8-2.6-42.4.1-10.7 3.9-18.4 14.6-23.6 32.7-2.3 8-2.5 9.9-2 22.5.8 22.1 1.5 38.1 2 48.3.3 5.2.7 15.6 1 23 .3 7.4.7 17.3 1 22 .2 4.7.6 15.5 1 24 .6 16.8 1.1 27.5 2 47.5.4 7.1.8 17.3 1 22.5.4 10.8 1.3 28.5 2 41 .5 8.5.9 16.7 2 39.5.3 6.6.7 14.9 1 18.5.3 3.6.7 12.1 1 19 .6 12.2 1.1 23.4 2 39.5.2 4.4.6 13.2 1 19.5.3 6.3.7 15.5 1 20.5.3 4.9.7 13.9 1 20 .3 6 .7 14.8 1 19.5 1 18.5 1.6 29.9 2 39.5.3 5.5.7 14 1 19 .2 4.9.7 13.9 1 20 .3 6 .7 14.8 1 19.5.3 4.7.7 13.2 1 19 .3 5.8.8 15.2 1 21 .3 5.8.8 14.8 1 20 .3 5.2.7 14 1 19.5.3 5.5.8 13.8 1 18.5.3 4.7.7 13.9 1 20.5.7 13.8 1.3 21.3 2 27 1.8 12.7 8.2 29.6 15.1 39.7C53 852.6 67 867 69 867c.5 0 2.3 2.1 4.1 4.7 4.9 7.4 16.8 18.5 23.4 21.9 11.1 5.8 27.6 8.2 41.7 6 9.4-1.4 14.5-10.3 16.6-28.6 1.1-9.8.6-37.7-1.3-66.5-.3-3.9-.7-12.4-1-19-.3-6.6-.7-15.4-1-19.5-.2-4.1-.6-12.9-1-19.5-.8-17.6-1.5-30.9-2-40-.2-4.4-.7-13.2-1-19.5-.3-6.3-.8-15.6-1-20.5-.3-5-.7-14-1-20-.3-6.1-.7-14.6-1-19-1.7-28.8-1.7-30.4 0-36.1l1.6-5.7 7.5 14.9c19.3 38.3 45.7 86.4 57.9 105.4 4.6 7.2 14 22.2 15 23.8 4.3 7.4 34.4 49.2 37.5 52.2.3.3 2.8 3.2 5.5 6.5 6.3 7.5 5.9 7 19.5 21.2 6.3 6.5 15.7 16.3 20.8 21.7 47.4 49.3 86.3 56.4 122.1 22.2 10-9.5 22.6-28.2 24.9-36.8 1.2-4.5-.1-7.5-5.5-12.3-2.9-2.5-3.5-3.6-2.6-4.6 2.7-3.4 6.4-14.3 6.4-19.3.2-11-10-20.7-34.1-32.6-18.1-8.9-29-16.8-43.8-31.9-7.3-7.5-14.2-15.4-15.2-17.6-1-2.2-4-7.8-6.5-12.5-2.6-4.7-8.1-15-12.2-23-4.2-8-7.9-15-8.3-15.5-.4-.6-2.9-5.1-5.5-10-2.6-5-6.2-11.7-8-15-5.1-9.4-13-24.5-22.7-43-9.3-17.9-46-91.6-49.7-99.8-12.6-28-16.3-36.5-19.6-44.3l-3.7-9.2 3.2-7.3c1.7-4.1 4-9.3 5-11.5 1.1-2.3 3.9-8.7 6.4-14.2 2.5-5.6 7.7-16.7 11.6-24.8l7-14.7 3.8 4c4.5 5 12.8 10.7 17.9 12.4 2.4.7 6.3 3.8 10.8 8.4 7.2 7.4 10.3 9.5 16.7 11.3 2.8.8 4.1.7 5.7-.4 2.6-1.8 2.9-.7 3.5 11.1.3 4.9.7 12.4 1.1 16.5.3 4.1.7 11.3 1 16 .7 13.6 1.4 25.9 2 34.5.7 10.5 1.2 18.5 2 32.5.3 6.3.8 13.3 1 15.5.3 2.2.7 9.2 1 15.5.3 6.3.8 14.9 1 19 .3 4.1.7 12 1 17.5.3 5.5.8 12.5 1 15.5.2 3 .7 11.8 1 19.5.3 7.7.8 16.2 1.1 18.9 1 11.2 10.3 19 28.2 23.6 2.3.6 4.3 1.6 4.3 2.3.1.7.2 1.6.4 2.2.1.5.3 1.8.3 2.8.4 4.3 7.6 8.7 19.2 11.7 7.6 2 11.7 1.7 14.5-1.1 1.8-1.7 2-3.2 1.9-12.7 0-9.6-.6-19.8-1.9-37.7-.9-12.2-2.2-32.3-2.9-45.5-.3-4.7-.8-11.9-1.1-16-.2-4.1-.7-11.1-1-15.5-.3-4.4-.8-11.6-1.1-16-.5-7.1-.4-7.8.9-6 .8 1.1 6 8.7 11.7 17 5.7 8.2 12.3 17.8 14.7 21.3 2.3 3.5 4.3 6.7 4.3 7.2 0 .4.4 1 .8 1.2.5.1 4.6 5.9 9.3 12.8 4.6 6.9 8.7 12.7 9 13 .3.3 5.1 7.5 10.7 16 13.3 20.4 17.5 25 27.5 30 4.4 2.2 8.5 4 9.3 4 .7 0 2 1.3 2.8 2.9 4.4 8.4 17.6 16.7 29.3 18.4 1.2.2 2.6.6 3 1.1.8.8.8.3 1.8 21.6 1.2 25.5 1.3 28.1 1.9 38 .3 5.2.8 15.1 1.1 22 .3 6.9.8 15.4 1 19 .3 3.6.7 12.4 1 19.6 1.1 27.3 2.6 36.4 8.4 50.9 5.8 14.3 14.6 26.3 26.4 35.6 2.7 2.1 6.8 6.5 9.1 9.6 12.5 17 29.2 25.6 49.6 25.6 17.6-.1 20.7-1.3 25-10.5 6-12.7 6.7-29.3 3.5-84.3-.3-4.4-.7-13-1-19-.6-13.7-1.4-29.5-2-40-.2-4.4-.7-13.9-1-21-.4-7.2-.8-15.7-1-19-.2-3.3-.6-12.1-.9-19.5-.4-7.4-.8-16.2-1.1-19.5-.2-3.3-.7-12.3-1-20-.4-7.7-.8-16.5-1-19.5-1.4-20.8-1.5-30.7-.5-35.1.7-2.7 1.6-5.1 2-5.4.4-.3 5.1 8 10.3 18.3 12.9 25.6 22 42.6 32.5 61.2 3.6 6.3 7 12.4 7.6 13.5 1.7 3.1 14.8 25 17.8 29.8 1.5 2.3 4.1 6.7 5.9 9.7 1.8 3 3.5 5.7 3.8 6 .6.5 7.5 10.8 9.6 14.2 2.6 4.3 12.7 18.4 20.6 28.8 11.8 15.6 21.8 27.2 35.7 41.5 6.4 6.7 15.5 16.1 20.2 21.1 21 22 41.4 35.9 60.7 41.2 22 6.1 43.8-1.3 63.5-21.5 7.1-7.3 16.1-19.9 19.8-27.7 4.6-9.7 4.4-12.1-1.4-17.8l-4.4-4.3 3.1-6.5c2.6-5.5 3.1-7.7 3.2-14.2 0-7-.2-7.9-3.1-11.5-5.3-6.6-14.1-12.9-27.7-19.9-22-11.1-33.5-19.4-47.2-33.8-12.8-13.4-12-12.2-30.9-48.1-7-13.2-12.4-23.4-16.6-31-1.5-2.8-4.8-8.8-7.2-13.5-2.5-4.7-6.8-12.8-9.6-18-25.1-47.4-65.4-128.5-73.5-148-.8-1.9-2.3-5.5-3.5-8-5.9-13.2-9.2-22.5-8.6-24.4.4-1.2 1.5-4.1 2.6-6.6 6.2-14 7.5-16.8 13.3-29.5 1.5-3.3 6.3-13.4 10.7-22.5 4.3-9.1 9.3-19.6 11.1-23.4 1.7-3.9 22.7-45.9 46.5-93.5 23.7-47.6 44.5-89.8 46.2-93.6 3.9-9.6 4.5-14.9 2.4-22.4-.9-3.3-2.2-6.5-2.9-7.1-1-.9-1-2 .1-5.8 5.8-19.3-1.8-37.5-21.6-51.1-9.1-6.3-23.6-13-25.2-11.6z"/></svg>